#!OML:ASF H:\GeneralSubjects\Female5\Project 1\Capture day 1\Session 1\Female5.ASF
:FULLY-SPECIFIED
:DEGREES
403
root 15.7836 15.6216 3.80432 673.279 263.496 55.7122
lowerback 12.6567 -0.270195 -6.99325
upperback -10.3756 -0.888084 9.69222
thorax -18.9693 1.35747 15.9023
lowerneck -16.5459 3.36775 -1.32557
upperneck 38.0281 7.5812 -9.133
head 17.066 0.964681 -2.62819
rclavicle 3.18055e-014 -3.81667e-014
rhumerus -53.3201 44.1268 -91.3037
rradius 39.0452
rwrist -15.0848
rhand -22.045 -22.8514
rfingers 7.12502
rthumb 4.36528 -52.7864
lclavicle 3.18055e-014 -3.81667e-014
lhumerus -63.5557 20.3201 70.1873
lradius 32.0628
lwrist -5.65742
lhand -21.3409 29.9765
lfingers 7.12502
lthumb 5.04519 59.8964
rfemur 9.53243 -2.82267 32.5898
rtibia 26.5262
rfoot 7.22229 -12.7538
rtoes 0.462766
lfemur -32.8164 -16.8602 -20.3355
ltibia 24.2814
lfoot -21.969 4.93467
ltoes -31.2775
404
root 15.4113 15.6852 3.81837 678.2 263.986 50.2082
lowerback 13.0323 -0.321371 -7.36984
upperback -10.1951 -1.06546 9.40589
thorax -18.9076 1.29702 15.8137
lowerneck -16.4055 3.51289 -1.31962
upperneck 38.5796 7.69438 -8.90095
head 17.3237 1.0042 -2.54081
rclavicle 4.31363e-014 -5.40694e-014
rhumerus -53.6318 43.385 -91.1908
rradius 38.2033
rwrist -15.3691
rhand -22.0309 -22.5428
rfingers 7.12502
rthumb 4.37894 -52.4775
lclavicle 4.31363e-014 -5.40694e-014
lhumerus -62.3885 20.129 70.6212
lradius 31.1586
lwrist -6.98625
lhand -20.2857 29.8316
lfingers 7.12502
lthumb 6.06399 59.7248
rfemur 7.56128 -4.3746 30.4837
rtibia 31.7728
rfoot 11.2688 -15.829
rtoes -1.81723
lfemur -29.3615 -16.9187 -22.2116
ltibia 22.5746
lfoot -21.9519 4.89816
ltoes -31.9713
405
root 15.0488 15.7443 3.82888 685.674 264.332 42.2393
lowerback 13.3678 -0.302311 -7.96376
upperback -10.0857 -1.20035 9.116
thorax -18.928 1.29836 15.8582
lowerneck -15.9153 3.61496 -1.11158
upperneck 38.9242 7.72452 -8.93776
head 17.4024 1.01922 -2.61935
rclavicle -7.11649e-014 1.41535e-013
rhumerus -53.9516 42.6669 -90.9084
rradius 37.6647
rwrist -14.5718
rhand -20.603 -23.6621
rfingers 7.12502
rthumb 5.7576 -53.5638
lclavicle -7.11649e-014 1.41535e-013
lhumerus -61.2886 19.4907 71.3982
lradius 30.7116
lwrist -7.76555
lhand -19.525 29.3391
lfingers 7.12502
lthumb 6.7984 59.21
rfemur 5.25592 -5.69868 28.5032
rtibia 36.661
rfoot 16.3849 -17.8664
rtoes -5.69388
lfemur -26.0051 -16.904 -24.0379
ltibia 20.8119
lfoot -22.0795 5.37348
ltoes -34.6118
406
root 14.702 15.7951 3.83344 695.824 264.589 31.7004
lowerback 13.7044 -0.227647 -8.88335
upperback -10.0445 -1.34093 8.82869
thorax -19.0356 1.35795 16.1263
lowerneck -15.2185 3.65243 -0.852172
upperneck 39.1434 7.67774 -9.1573
head 17.369 0.994357 -2.8011
rclavicle 6.06293e-014 -6.52014e-014
rhumerus -55.0817 42.6071 -91.5147
rradius 37.332
rwrist -15.966
rhand -21.7536 -22.6889
rfingers 7.12502
rthumb 4.64667 -52.618
lclavicle 6.06293e-014 -6.52014e-014
lhumerus -60.2208 18.7546 72.2009
lradius 30.4288
lwrist -8.69655
lhand -19.1097 28.5325
lfingers 7.12502
lthumb 7.19922 58.3901
rfemur 2.55267 -6.92092 26.6089
rtibia 41.2251
rfoot 16.412 -19.7983
rtoes -22.5771
lfemur -23.0703 -16.9242 -25.8875
ltibia 19.4223
lfoot -22.3938 6.01706
ltoes -38.4139
407
root 14.37 15.8422 3.83251 706.85 264.657 20.3933
lowerback 13.9955 -0.173946 -9.79158
upperback -9.98649 -1.51305 8.54906
thorax -19.076 1.39326 16.3965
lowerneck -14.6744 3.6769 -0.822615
upperneck 39.3236 7.62631 -9.17037
head 17.326 0.963922 -2.84132
rclavicle -4.37326e-015 -6.36111e-015
rhumerus -55.257 42.254 -91.2244
rradius 36.9162
rwrist -15.0509
rhand -20.8752 -23.1778
rfingers 7.12502
rthumb 5.49488 -53.0866
lclavicle -4.37326e-015 -6.36111e-015
lhumerus -59.0213 17.9699 73.0698
lradius 30.4274
lwrist -9.34747
lhand -19.3741 28.4704
lfingers 7.12502
lthumb 6.94404 58.3365
rfemur -0.580054 -8.00388 25.0517
rtibia 45.5393
rfoot 14.2305 -21.6278
rtoes -19.9151
lfemur -20.5678 -16.6385 -27.6881
ltibia 18.1778
lfoot -22.7319 5.05627
ltoes -37.8896
408
root 14.045 15.887 3.8257 716.028 264.508 11.1581
lowerback 14.0904 -0.194565 -10.4092
upperback -9.92531 -1.71273 8.29028
thorax -18.9689 1.35424 16.4971
lowerneck -14.4807 3.71373 -1.08195
upperneck 39.5857 7.57908 -8.78839
head 17.3768 0.939201 -2.64642
rclavicle 2.127e-014 -6.83819e-014
rhumerus -55.4669 42.0479 -90.9396
rradius 36.7239
rwrist -14.3389
rhand -20.6448 -23.0352
rfingers 7.12502
rthumb 5.71733 -52.9381
lclavicle 2.127e-014 -6.83819e-014
lhumerus -57.7247 17.2493 73.7546
lradius 30.7719
lwrist -9.82571
lhand -20.2272 28.7725
lfingers 7.12502
lthumb 6.12044 58.6641
rfemur -4.2347 -8.85052 24.0685
rtibia 49.2353
rfoot 12.4041 -22.5521
rtoes -18.7425
lfemur -18.5137 -16.2996 -29.0812
ltibia 17.2042
lfoot -23.0623 4.07388
ltoes -37.0882
